<svg xmlns="http://www.w3.org/2000/svg" width="15" height="16" viewBox="0 0 15 16" fill="none">
  <path d="M7.0099 11.0556C7.70435 11.0556 8.29462 10.8125 8.78074 10.3264C9.26685 9.84028 9.5099 9.25 9.5099 8.55556C9.5099 7.86111 9.26685 7.27083 8.78074 6.78472C8.29462 6.29861 7.70435 6.05556 7.0099 6.05556C6.31546 6.05556 5.72518 6.29861 5.23907 6.78472C4.75296 7.27083 4.5099 7.86111 4.5099 8.55556C4.5099 9.25 4.75296 9.84028 5.23907 10.3264C5.72518 10.8125 6.31546 11.0556 7.0099 11.0556ZM7.0099 9.94444C6.62101 9.94444 6.29231 9.81019 6.02379 9.54167C5.75527 9.27315 5.62101 8.94444 5.62101 8.55556C5.62101 8.16667 5.75527 7.83796 6.02379 7.56944C6.29231 7.30093 6.62101 7.16667 7.0099 7.16667C7.39879 7.16667 7.72749 7.30093 7.99601 7.56944C8.26453 7.83796 8.39879 8.16667 8.39879 8.55556C8.39879 8.94444 8.26453 9.27315 7.99601 9.54167C7.72749 9.81019 7.39879 9.94444 7.0099 9.94444ZM2.56546 13C2.2599 13 1.99833 12.8912 1.78073 12.6736C1.56314 12.456 1.45435 12.1944 1.45435 11.8889V5.22222C1.45435 4.91667 1.56314 4.65509 1.78073 4.4375C1.99833 4.21991 2.2599 4.11111 2.56546 4.11111H4.31546L5.34323 3H8.67657L9.70435 4.11111H11.4543C11.7599 4.11111 12.0215 4.21991 12.2391 4.4375C12.4567 4.65509 12.5655 4.91667 12.5655 5.22222V11.8889C12.5655 12.1944 12.4567 12.456 12.2391 12.6736C12.0215 12.8912 11.7599 13 11.4543 13H2.56546ZM2.56546 11.8889H11.4543V5.22222H9.20435L8.19046 4.11111H5.82935L4.81546 5.22222H2.56546V11.8889Z" fill="currentColor"/>
</svg>