<svg xmlns="http://www.w3.org/2000/svg" width="25" height="28" viewBox="0 0 25 28" fill="none">
  <path d="M12.01 14C12.01 14 12.1436 14 12.411 14C12.6784 14 13.0024 13.8096 13.3832 13.4288C13.764 13.048 13.9544 12.5903 13.9544 12.0556C13.9544 11.5208 13.764 11.0631 13.3832 10.6823C13.0024 10.3015 12.5447 10.1111 12.01 10.1111C11.4752 10.1111 11.0175 10.3015 10.6367 10.6823C10.2559 11.0631 10.0655 11.5208 10.0655 12.0556C10.0655 12.5903 10.2559 13.048 10.6367 13.4288C11.0175 13.8096 11.4752 14 12.01 14ZM12.01 21.1458C13.9868 19.331 15.4532 17.6823 16.4093 16.1997C17.3653 14.717 17.8433 13.4005 17.8433 12.25C17.8433 10.4838 17.2802 9.03762 16.1541 7.91146C15.0279 6.78531 13.6465 6.22223 12.01 6.22223C10.3734 6.22223 8.99202 6.78531 7.86586 7.91146C6.7397 9.03762 6.17662 10.4838 6.17662 12.25C6.17662 13.4005 6.65463 14.717 7.61065 16.1997C8.56667 17.6823 10.0331 19.331 12.01 21.1458ZM12.01 23.7222C9.40116 21.5023 7.45266 19.4404 6.16447 17.5365C4.87627 15.6325 4.23218 13.8704 4.23218 12.25C4.23218 9.81945 5.01401 7.88311 6.57766 6.44098C8.14132 4.99885 9.95209 4.27778 12.01 4.27778C14.0678 4.27778 15.8786 4.99885 17.4422 6.44098C19.0059 7.88311 19.7877 9.81945 19.7877 12.25C19.7877 13.8704 19.1436 15.6325 17.8554 17.5365C16.5672 19.4404 14.6188 21.5023 12.01 23.7222Z" fill="currentColor"/>
</svg>