<svg width="20" height="20" viewBox="0 0 20 20" fill="none" xmlns="http://www.w3.org/2000/svg">
<path d="M3.5 7.77346L5.39583 8.57555C5.62269 8.12184 5.85764 7.68434 6.10069 7.26305C6.34375 6.84175 6.61111 6.42045 6.90278 5.99916L5.54167 5.7318L3.5 7.77346ZM6.95139 9.79082L9.72222 12.5374C10.4028 12.2781 11.1319 11.8811 11.9097 11.3464C12.6875 10.8117 13.4167 10.204 14.0972 9.52346C15.2315 8.3892 16.1186 7.12937 16.7587 5.74395C17.3987 4.35853 17.6782 3.08249 17.5972 1.91582C16.4306 1.83481 15.1505 2.11432 13.7569 2.75437C12.3634 3.39441 11.0995 4.28157 9.96528 5.41582C9.28472 6.09638 8.67708 6.82555 8.14236 7.60332C7.60764 8.3811 7.21065 9.11027 6.95139 9.79082ZM11.2778 8.21096C11.2778 8.21096 11.1846 8.11779 10.9983 7.93145C10.8119 7.74511 10.7188 7.38052 10.7188 6.8377C10.7188 6.29488 10.9051 5.83712 11.2778 5.46444C11.6505 5.09175 12.1123 4.90541 12.6632 4.90541C13.2141 4.90541 13.6759 5.09175 14.0486 5.46444C14.4213 5.83712 14.6076 6.29488 14.6076 6.8377C14.6076 7.38052 14.4213 7.83828 14.0486 8.21096C13.6759 8.58365 13.2141 8.76999 12.6632 8.76999C12.1123 8.76999 11.6505 8.58365 11.2778 8.21096ZM11.7396 16.013L13.7812 13.9714L13.5139 12.6103C13.0926 12.9019 12.6713 13.1652 12.25 13.4002C11.8287 13.6352 11.3912 13.8661 10.9375 14.0929L11.7396 16.013ZM19.3472 0.14152C19.6551 2.10217 19.4647 4.01015 18.776 5.86548C18.0874 7.7208 16.9005 9.49106 15.2153 11.1762L15.7014 13.5825C15.7662 13.9066 15.75 14.2225 15.6528 14.5304C15.5556 14.8383 15.3935 15.1056 15.1667 15.3325L11.0833 19.4158L9.04167 14.6276L4.88542 10.4714L0.0972222 8.42971L4.15625 4.34638C4.3831 4.11953 4.65451 3.95749 4.97049 3.86027C5.28646 3.76305 5.60648 3.74684 5.93056 3.81166L8.33681 4.29777C10.022 2.61258 11.7882 1.42161 13.6354 0.724854C15.4826 0.0280943 17.3866 -0.166351 19.3472 0.14152ZM1.82292 13.5582C2.39005 12.9911 3.08275 12.7034 3.90104 12.6953C4.71933 12.6872 5.41204 12.9668 5.97917 13.5339C6.5463 14.101 6.82581 14.7937 6.81771 15.612C6.80961 16.4303 6.52199 17.123 5.95486 17.6901C5.54977 18.0952 4.87326 18.4436 3.92535 18.7353C2.97743 19.0269 1.66898 19.2862 0 19.513C0.226852 17.8441 0.486111 16.5356 0.777778 15.5877C1.06944 14.6398 1.41782 13.9633 1.82292 13.5582ZM3.20833 14.9193C3.0463 15.0813 2.88426 15.3771 2.72222 15.8064C2.56019 16.2358 2.44676 16.6693 2.38194 17.1068C2.81944 17.042 3.25289 16.9326 3.68229 16.7787C4.11169 16.6247 4.40741 16.4668 4.56944 16.3047C4.76389 16.1103 4.86921 15.8753 4.88542 15.5999C4.90162 15.3244 4.8125 15.0894 4.61806 14.895C4.42361 14.7005 4.18866 14.6074 3.91319 14.6155C3.63773 14.6236 3.40278 14.7249 3.20833 14.9193Z" fill="white"/>
</svg>
