<svg width="20" height="20" viewBox="0 0 20 20" fill="none" xmlns="http://www.w3.org/2000/svg">
<path d="M5.83091 19.4365C5.83091 19.4365 5.69728 19.4365 5.43003 19.4365C5.16278 19.4365 4.83884 19.2462 4.45821 18.8656C4.07758 18.485 3.88727 18.0274 3.88727 17.4929C3.88727 16.9584 4.07758 16.5008 4.45821 16.1202C4.83884 15.7396 5.29641 15.5493 5.83091 15.5493C6.3654 15.5493 6.82297 15.7396 7.2036 16.1202C7.58423 16.5008 7.77454 16.9584 7.77454 17.4929C7.77454 18.0274 7.58423 18.485 7.2036 18.8656C6.82297 19.2462 6.3654 19.4365 5.83091 19.4365ZM15.5491 19.4365C15.5491 19.4365 15.4155 19.4365 15.1482 19.4365C14.881 19.4365 14.557 19.2462 14.1764 18.8656C13.7958 18.485 13.6054 18.0274 13.6054 17.4929C13.6054 16.9584 13.7958 16.5008 14.1764 16.1202C14.557 15.7396 15.0146 15.5493 15.5491 15.5493C16.0836 15.5493 16.5411 15.7396 16.9218 16.1202C17.3024 16.5008 17.4927 16.9584 17.4927 17.4929C17.4927 18.0274 17.3024 18.485 16.9218 18.8656C16.5411 19.2462 16.0836 19.4365 15.5491 19.4365ZM5.00486 3.88744L7.33722 8.74653H14.1399L16.8124 3.88744H5.00486ZM4.08163 1.94381H18.4159C18.7885 1.94381 19.0719 2.10983 19.2663 2.44186C19.4606 2.7739 19.4687 3.10999 19.2906 3.45013L15.8406 9.66976C15.6625 9.9937 15.4236 10.2447 15.1239 10.4229C14.8243 10.6011 14.4963 10.6902 14.1399 10.6902H6.8999L5.83091 12.6338H17.4927V14.5774H5.83091C5.10204 14.5774 4.55135 14.2575 4.17882 13.6178C3.80629 12.978 3.79009 12.3423 4.13022 11.7106L5.44218 9.32962L1.94364 1.94381H0V0.000172973H3.15841L4.08163 1.94381Z" fill="currentColor" fill-opacity="0.7"/>
</svg>
