<svg width="20" height="20" viewBox="0 0 20 20" fill="none" xmlns="http://www.w3.org/2000/svg">
<path d="M5.83091 19.4364C5.83091 19.4364 5.69728 19.4364 5.43003 19.4364C5.16278 19.4364 4.83884 19.2461 4.45821 18.8655C4.07758 18.4848 3.88727 18.0273 3.88727 17.4928C3.88727 16.9583 4.07758 16.5007 4.45821 16.1201C4.83884 15.7394 5.29641 15.5491 5.83091 15.5491C6.3654 15.5491 6.82297 15.7394 7.2036 16.1201C7.58423 16.5007 7.77454 16.9583 7.77454 17.4928C7.77454 18.0273 7.58423 18.4848 7.2036 18.8655C6.82297 19.2461 6.3654 19.4364 5.83091 19.4364ZM15.5491 19.4364C15.5491 19.4364 15.4155 19.4364 15.1482 19.4364C14.881 19.4364 14.557 19.2461 14.1764 18.8655C13.7958 18.4848 13.6054 18.0273 13.6054 17.4928C13.6054 16.9583 13.7958 16.5007 14.1764 16.1201C14.557 15.7394 15.0146 15.5491 15.5491 15.5491C16.0836 15.5491 16.5411 15.7394 16.9218 16.1201C17.3024 16.5007 17.4927 16.9583 17.4927 17.4928C17.4927 18.0273 17.3024 18.4848 16.9218 18.8655C16.5411 19.2461 16.0836 19.4364 15.5491 19.4364ZM5.00486 3.88732L7.33722 8.74641H14.1399L16.8124 3.88732H5.00486ZM4.08163 1.94369H18.4159C18.7885 1.94369 19.0719 2.1097 19.2663 2.44174C19.4606 2.77378 19.4687 3.10987 19.2906 3.45L15.8406 9.66964C15.6625 9.99357 15.4236 10.2446 15.1239 10.4228C14.8243 10.601 14.4963 10.69 14.1399 10.69H6.8999L5.83091 12.6337H17.4927V14.5773H5.83091C5.10204 14.5773 4.55135 14.2574 4.17882 13.6176C3.80629 12.9779 3.79009 12.3421 4.13022 11.7105L5.44218 9.3295L1.94364 1.94369H0V5.09024e-05H3.15841L4.08163 1.94369Z" fill="#F1F5F9"/>
</svg>
