<svg xmlns="http://www.w3.org/2000/svg" width="15" height="16" viewBox="0 0 15 16" fill="none">
  <path d="M3.12112 11.8889H3.91279L9.34334 6.45833L8.55168 5.66667L3.12112 11.0972V11.8889ZM2.01001 13V10.6389L9.34334 3.31944C9.45445 3.21759 9.57714 3.13889 9.7114 3.08333C9.84566 3.02778 9.98686 3 10.135 3C10.2832 3 10.4267 3.02778 10.5656 3.08333C10.7045 3.13889 10.8248 3.22222 10.9267 3.33333L11.6906 4.11111C11.8017 4.21296 11.8827 4.33333 11.9336 4.47222C11.9845 4.61111 12.01 4.75 12.01 4.88889C12.01 5.03704 11.9845 5.17824 11.9336 5.3125C11.8827 5.44676 11.8017 5.56944 11.6906 5.68056L4.37112 13H2.01001ZM8.94057 6.06944L8.55168 5.66667L9.34334 6.45833L8.94057 6.06944Z" fill="currentColor"/>
</svg>