<svg xmlns="http://www.w3.org/2000/svg" width="15" height="16" viewBox="0 0 15 16" fill="none">
  <path d="M11.2322 13L7.73223 9.5C7.45445 9.72222 7.13501 9.89815 6.7739 10.0278C6.41279 10.1574 6.02853 10.2222 5.62112 10.2222C4.61186 10.2222 3.75769 9.87269 3.05862 9.17361C2.35955 8.47454 2.01001 7.62037 2.01001 6.61111C2.01001 5.60185 2.35955 4.74769 3.05862 4.04861C3.75769 3.34954 4.61186 3 5.62112 3C6.63038 3 7.48455 3.34954 8.18362 4.04861C8.8827 4.74769 9.23223 5.60185 9.23223 6.61111C9.23223 7.01852 9.16742 7.40278 9.03779 7.76389C8.90816 8.125 8.73223 8.44444 8.51001 8.72222L12.01 12.2222L11.2322 13ZM5.62112 9.11111C6.31557 9.11111 6.90584 8.86806 7.39195 8.38194C7.87807 7.89583 8.12112 7.30556 8.12112 6.61111C8.12112 5.91667 7.87807 5.32639 7.39195 4.84028C6.90584 4.35417 6.31557 4.11111 5.62112 4.11111C4.92668 4.11111 4.3364 4.35417 3.85029 4.84028C3.36418 5.32639 3.12112 5.91667 3.12112 6.61111C3.12112 7.30556 3.36418 7.89583 3.85029 8.38194C4.3364 8.86806 4.92668 9.11111 5.62112 9.11111Z" fill="#DFC0B7"/>
</svg>