<svg xmlns="http://www.w3.org/2000/svg" width="25" height="28" viewBox="0 0 25 28" fill="none">
  <path d="M9.33636 23.7222L8.94747 20.6111C8.73682 20.5301 8.53833 20.4329 8.35198 20.3194C8.16564 20.206 7.98335 20.0845 7.80511 19.9549L4.91275 21.1701L2.23914 16.5521L4.74261 14.6562C4.7264 14.5428 4.7183 14.4334 4.7183 14.3281C4.7183 14.2228 4.7183 14.1134 4.7183 14C4.7183 13.8866 4.7183 13.7772 4.7183 13.6719C4.7183 13.5666 4.7264 13.4572 4.74261 13.3437L2.23914 11.4479L4.91275 6.82986L7.80511 8.04514C7.98335 7.91551 8.16969 7.79398 8.36414 7.68056C8.55858 7.56713 8.75303 7.46991 8.94747 7.38889L9.33636 4.27778H14.6836L15.0725 7.38889C15.2831 7.46991 15.4816 7.56713 15.668 7.68056C15.8543 7.79398 16.0366 7.91551 16.2148 8.04514L19.1072 6.82986L21.7808 11.4479L19.2773 13.3437C19.2935 13.4572 19.3016 13.5666 19.3016 13.6719C19.3016 13.7772 19.3016 13.8866 19.3016 14C19.3016 14.1134 19.3016 14.2228 19.3016 14.3281C19.3016 14.4334 19.2854 14.5428 19.253 14.6562L21.7565 16.5521L19.0829 21.1701L16.2148 19.9549C16.0366 20.0845 15.8502 20.206 15.6558 20.3194C15.4614 20.4329 15.2669 20.5301 15.0725 20.6111L14.6836 23.7222H9.33636ZM11.0377 21.7778H12.9579L13.2982 19.2014C13.8005 19.0718 14.2663 18.8814 14.6957 18.6302C15.1251 18.379 15.5181 18.0752 15.8746 17.7187L18.2808 18.7153L19.2287 17.0625L17.1384 15.4826C17.2195 15.2558 17.2762 15.0168 17.3086 14.7656C17.341 14.5145 17.3572 14.2593 17.3572 14C17.3572 13.7407 17.341 13.4855 17.3086 13.2344C17.2762 12.9832 17.2195 12.7442 17.1384 12.5174L19.2287 10.9375L18.2808 9.28472L15.8746 10.3056C15.5181 9.93287 15.1251 9.62095 14.6957 9.36979C14.2663 9.11863 13.8005 8.92824 13.2982 8.79861L12.9822 6.22222H11.0621L10.7218 8.79861C10.2195 8.92824 9.7536 9.11863 9.32421 9.36979C8.89481 9.62095 8.50187 9.92477 8.14539 10.2812L5.73914 9.28472L4.79122 10.9375L6.8815 12.4931C6.80048 12.7361 6.74377 12.9792 6.71136 13.2222C6.67895 13.4653 6.66275 13.7245 6.66275 14C6.66275 14.2593 6.67895 14.5104 6.71136 14.7535C6.74377 14.9965 6.80048 15.2396 6.8815 15.4826L4.79122 17.0625L5.73914 18.7153L8.14539 17.6944C8.50187 18.0671 8.89481 18.379 9.32421 18.6302C9.7536 18.8814 10.2195 19.0718 10.7218 19.2014L11.0377 21.7778ZM12.0586 17.4028C12.9984 17.4028 13.8005 17.0706 14.4648 16.4062C15.1292 15.7419 15.4614 14.9398 15.4614 14C15.4614 13.0602 15.1292 12.2581 14.4648 11.5937C13.8005 10.9294 12.9984 10.5972 12.0586 10.5972C11.1026 10.5972 10.2964 10.9294 9.64018 11.5937C8.98393 12.2581 8.6558 13.0602 8.6558 14C8.6558 14.9398 8.98393 15.7419 9.64018 16.4062C10.2964 17.0706 11.1026 17.4028 12.0586 17.4028Z" fill="currentColor"/>
</svg>