<svg width="20" height="20" viewBox="0 0 20 20" fill="none" xmlns="http://www.w3.org/2000/svg">
<path d="M3.74306 14.6804C4.56944 14.0485 5.49306 13.5502 6.51389 13.1857C7.53472 12.8211 8.60417 12.6388 9.72222 12.6388C10.8403 12.6388 11.9097 12.8211 12.9306 13.1857C13.9514 13.5502 14.875 14.0485 15.7014 14.6804C16.2685 14.0161 16.7101 13.2626 17.026 12.42C17.342 11.5774 17.5 10.6781 17.5 9.72211C17.5 7.56702 16.7425 5.73195 15.2274 4.21691C13.7124 2.70186 11.8773 1.94434 9.72222 1.94434C7.56713 1.94434 5.73206 2.70186 4.21701 4.21691C2.70197 5.73195 1.94444 7.56702 1.94444 9.72211C1.94444 10.6781 2.10243 11.5774 2.4184 12.42C2.73438 13.2626 3.17593 14.0161 3.74306 14.6804ZM9.72222 10.6943C9.72222 10.6943 9.48322 10.6943 9.00521 10.6943C8.5272 10.6943 7.96007 10.3662 7.30382 9.70996C6.64757 9.05371 6.31944 8.24758 6.31944 7.29156C6.31944 6.33554 6.64757 5.52941 7.30382 4.87316C7.96007 4.21691 8.7662 3.88878 9.72222 3.88878C10.6782 3.88878 11.4844 4.21691 12.1406 4.87316C12.7969 5.52941 13.125 6.33554 13.125 7.29156C13.125 8.24758 12.7969 9.05371 12.1406 9.70996C11.4844 10.3662 10.6782 10.6943 9.72222 10.6943ZM9.72222 19.4443C8.37731 19.4443 7.11343 19.1891 5.93056 18.6787C4.74769 18.1683 3.71875 17.4756 2.84375 16.6006C1.96875 15.7256 1.27604 14.6967 0.765625 13.5138C0.255208 12.3309 0 11.067 0 9.72211C0 8.37721 0.255208 7.11332 0.765625 5.93045C1.27604 4.74758 1.96875 3.71864 2.84375 2.84364C3.71875 1.96864 4.74769 1.27593 5.93056 0.765516C7.11343 0.255099 8.37731 -0.000108838 9.72222 -0.000108838C11.0671 -0.000108838 12.331 0.255099 13.5139 0.765516C14.6968 1.27593 15.7257 1.96864 16.6007 2.84364C17.4757 3.71864 18.1684 4.74758 18.6788 5.93045C19.1892 7.11332 19.4444 8.37721 19.4444 9.72211C19.4444 11.067 19.1892 12.3309 18.6788 13.5138C18.1684 14.6967 17.4757 15.7256 16.6007 16.6006C15.7257 17.4756 14.6968 18.1683 13.5139 18.6787C12.331 19.1891 11.0671 19.4443 9.72222 19.4443ZM9.72222 17.4999C9.72222 17.4999 9.93692 17.4999 10.3663 17.4999C10.7957 17.4999 11.3912 17.3743 12.1528 17.1232C12.9144 16.872 13.6111 16.5115 14.2431 16.0416C13.6111 15.5717 12.9144 15.2111 12.1528 14.96C11.3912 14.7088 10.581 14.5832 9.72222 14.5832C8.86343 14.5832 8.05324 14.7088 7.29167 14.96C6.53009 15.2111 5.83333 15.5717 5.20139 16.0416C5.83333 16.5115 6.53009 16.872 7.29167 17.1232C8.05324 17.3743 8.86343 17.4999 9.72222 17.4999ZM9.72222 8.74989C9.72222 8.74989 9.82755 8.74989 10.0382 8.74989C10.2488 8.74989 10.4919 8.61216 10.7674 8.3367C11.0428 8.06123 11.1806 7.71285 11.1806 7.29156C11.1806 6.87026 11.0428 6.52188 10.7674 6.24642C10.4919 5.97096 10.1435 5.83322 9.72222 5.83322C9.30093 5.83322 8.95255 5.97096 8.67708 6.24642C8.40162 6.52188 8.26389 6.87026 8.26389 7.29156C8.26389 7.71285 8.40162 8.06123 8.67708 8.3367C8.95255 8.61216 9.30093 8.74989 9.72222 8.74989Z" fill="currentColor" fill-opacity="0.7"/>
</svg>
