<svg width="19" height="13" viewBox="0 0 19 13" fill="none" xmlns="http://www.w3.org/2000/svg">
<path d="M9.16661 9.99994C9.16661 9.99994 9.42702 9.99994 9.94786 9.99994C10.4687 9.99994 11.0937 9.63536 11.8229 8.90619C12.552 8.17702 12.9166 7.29161 12.9166 6.24994C12.9166 5.20827 12.552 4.32286 11.8229 3.59369C11.0937 2.86452 10.2083 2.49994 9.16661 2.49994C8.12494 2.49994 7.23952 2.86452 6.51036 3.59369C5.78119 4.32286 5.41661 5.20827 5.41661 6.24994C5.41661 7.29161 5.78119 8.17702 6.51036 8.90619C7.23952 9.63536 8.12494 9.99994 9.16661 9.99994ZM9.16661 8.49994C9.16661 8.49994 9.01036 8.49994 8.69786 8.49994C8.38536 8.49994 8.01036 8.28119 7.57286 7.84369C7.13536 7.40619 6.91661 6.87494 6.91661 6.24994C6.91661 5.62494 7.13536 5.09369 7.57286 4.65619C8.01036 4.21869 8.54161 3.99994 9.16661 3.99994C9.79161 3.99994 10.3229 4.21869 10.7604 4.65619C11.1979 5.09369 11.4166 5.62494 11.4166 6.24994C11.4166 6.87494 11.1979 7.40619 10.7604 7.84369C10.3229 8.28119 9.79161 8.49994 9.16661 8.49994ZM9.16661 12.4999C9.16661 12.4999 8.65966 12.4999 7.64577 12.4999C6.63188 12.4999 5.29161 11.934 3.62494 10.802C1.95827 9.67008 0.749939 8.15272 -6.10352e-05 6.24994C0.749939 4.34716 1.95827 2.8298 3.62494 1.69786C5.29161 0.565911 7.13883 -6.14077e-05 9.16661 -6.14077e-05C11.1944 -6.14077e-05 13.0416 0.565911 14.7083 1.69786C16.3749 2.8298 17.5833 4.34716 18.3333 6.24994C17.5833 8.15272 16.3749 9.67008 14.7083 10.802C13.0416 11.934 11.1944 12.4999 9.16661 12.4999ZM9.16661 10.8333C9.16661 10.8333 9.55897 10.8333 10.3437 10.8333C11.1284 10.8333 12.177 10.4201 13.4895 9.59369C14.802 8.7673 15.8055 7.65272 16.4999 6.24994C15.8055 4.84716 14.802 3.73258 13.4895 2.90619C12.177 2.0798 10.7361 1.66661 9.16661 1.66661C7.59716 1.66661 6.15619 2.0798 4.84369 2.90619C3.53119 3.73258 2.52772 4.84716 1.83327 6.24994C2.52772 7.65272 3.53119 8.7673 4.84369 9.59369C6.15619 10.4201 7.59716 10.8333 9.16661 10.8333Z" fill="#94A3B8"/>
</svg>
