<svg width="16" height="21" viewBox="0 0 16 21" fill="none" xmlns="http://www.w3.org/2000/svg">
<path d="M1.94451 20.4167C1.40978 20.4167 0.952029 20.2264 0.571242 19.8456C0.190455 19.4648 6.10352e-05 19.007 6.10352e-05 18.4723V8.75008C6.10352e-05 8.21536 0.190455 7.7576 0.571242 7.37682C0.952029 6.99603 1.40978 6.80564 1.94451 6.80564H2.91673V4.86119C2.91673 3.51628 3.39069 2.36987 4.3386 1.42195C5.28652 0.474038 6.43293 7.94679e-05 7.77784 7.94679e-05C9.12275 7.94679e-05 10.2692 0.474038 11.2171 1.42195C12.165 2.36987 12.639 3.51628 12.639 4.86119V6.80564H13.6112C14.1459 6.80564 14.6036 6.99603 14.9844 7.37682C15.3652 7.7576 15.5556 8.21536 15.5556 8.75008V18.4723C15.5556 19.007 15.3652 19.4648 14.9844 19.8456C14.6036 20.2264 14.1459 20.4167 13.6112 20.4167H1.94451ZM1.94451 18.4723H13.6112V8.75008H1.94451V18.4723ZM7.77784 15.5556C7.77784 15.5556 7.91152 15.5556 8.17888 15.5556C8.44624 15.5556 8.77032 15.3652 9.1511 14.9845C9.53189 14.6037 9.72228 14.1459 9.72228 13.6112C9.72228 13.0765 9.53189 12.6187 9.1511 12.2379C8.77032 11.8571 8.31256 11.6667 7.77784 11.6667C7.24312 11.6667 6.78536 11.8571 6.40458 12.2379C6.02379 12.6187 5.83339 13.0765 5.83339 13.6112C5.83339 14.1459 6.02379 14.6037 6.40458 14.9845C6.78536 15.3652 7.24312 15.5556 7.77784 15.5556ZM4.86117 6.80564H10.6945V4.86119C10.6945 4.05101 10.4109 3.36235 9.84381 2.79522C9.27668 2.22809 8.58802 1.94452 7.77784 1.94452C6.96765 1.94452 6.279 2.22809 5.71187 2.79522C5.14474 3.36235 4.86117 4.05101 4.86117 4.86119V6.80564Z" fill="#94A3B8"/>
</svg>
